<svg width="20" height="20" viewBox="0 0 20 20" fill="none" xmlns="http://www.w3.org/2000/svg">
<path d="M8.33337 5L8.33321 4.167C8.33302 3.24639 9.07927 2.5 9.99987 2.5V2.5C10.9202 2.5 11.6664 3.24599 11.6665 4.16633L11.6667 5M11.6662 15.4167H14.5278C15.8556 15.4167 16.5695 13.8568 15.7015 12.852L15.108 12.1648C14.3738 11.3148 14.0213 10.2003 14.1332 9.08269V9.08269C14.3742 6.67374 12.4825 4.58333 10.0615 4.58333H9.9387C7.51753 4.58333 5.62563 6.67374 5.8664 9.08291V9.08291C5.97809 10.2004 5.62563 11.3147 4.89159 12.1647L4.2983 12.8518C3.43041 13.8568 4.14438 15.4167 5.47226 15.4167H8.33288M11.6662 15.4167V15.8333C11.6662 16.7538 10.92 17.5 9.99954 17.5V17.5C9.07907 17.5 8.33288 16.7538 8.33288 15.8333V15.4167M11.6662 15.4167H8.33288" stroke="#F4F4F4" stroke-width="1.5" stroke-linejoin="round"/>
</svg>
