<svg width="32" height="32" viewBox="0 0 32 32" fill="none" xmlns="http://www.w3.org/2000/svg">
<path d="M17.2411 0.000867911C17.2928 0.000833711 17.3445 0.000765051 17.3962 0.000665107C17.5377 0.000490661 17.6791 0.000802321 17.8205 0.00119602C17.9733 0.00153518 18.1261 0.00141974 18.2788 0.00136033C18.5433 0.00131931 18.8078 0.00156447 19.0722 0.00200558C19.4546 0.00264292 19.837 0.00284623 20.2193 0.00294457C20.8397 0.00311588 21.4601 0.00363614 22.0805 0.00437817C22.6831 0.00509803 23.2857 0.00565264 23.8882 0.0059845C23.9068 0.0059948 23.9254 0.0060051 23.9445 0.00601572C24.1312 0.006119 24.3179 0.00621893 24.5045 0.00631641C26.0689 0.00713367 27.6333 0.00851535 29.1977 0.0102872C29.1977 0.0275193 29.1977 0.0447513 29.1977 0.0625056C29.2197 0.0634816 29.2416 0.0644577 29.2641 0.0654633C29.3076 0.068038 29.3076 0.068038 29.3519 0.0706647C29.3805 0.0721793 29.4091 0.0736938 29.4386 0.0752543C29.5302 0.0897487 29.5806 0.120342 29.6586 0.166943C29.7226 0.177445 29.7838 0.179925 29.8486 0.182445C29.9025 0.193052 29.9025 0.193052 29.9567 0.271379C30.0126 0.290278 30.0126 0.290278 30.0652 0.297489C30.0652 0.314721 30.0652 0.331953 30.0652 0.349707C30.1218 0.377982 30.1755 0.402519 30.2363 0.421507C30.3202 0.459105 30.3766 0.507456 30.4436 0.568168C30.502 0.615685 30.502 0.615685 30.5895 0.659244C30.6909 0.713561 30.771 0.780373 30.8546 0.857205C30.8682 0.869338 30.8817 0.881471 30.8956 0.893972C30.9354 0.929803 30.9746 0.966116 31.0139 1.00244C31.0384 1.02505 31.0629 1.04767 31.0881 1.07097C31.1393 1.12275 31.1727 1.16297 31.2053 1.226C31.2662 1.33 31.3357 1.39397 31.4273 1.4724C31.4747 1.52462 31.4747 1.52462 31.4747 1.62906C31.5015 1.62906 31.5284 1.62906 31.556 1.62906C31.5588 1.65383 31.5616 1.6786 31.5645 1.70412C31.5746 1.79331 31.5746 1.79331 31.6645 1.83793C31.6715 1.8905 31.6784 1.94311 31.6831 1.99591C31.6943 2.06321 31.7301 2.09797 31.7729 2.15124C31.7915 2.24915 31.7915 2.24915 31.8 2.33401C31.8268 2.34262 31.8537 2.35124 31.8813 2.36012C31.9047 2.42781 31.9132 2.47344 31.917 2.54319C31.9181 2.56296 31.9193 2.58273 31.9204 2.60311C31.9215 2.62362 31.9226 2.64413 31.9237 2.66527C31.9254 2.69649 31.9254 2.69649 31.9272 2.72835C31.9301 2.77966 31.9328 2.83098 31.9355 2.8823C31.9534 2.8823 31.9713 2.8823 31.9897 2.8823C31.9911 4.17363 31.9924 5.46496 31.9932 6.7563C31.9932 6.78498 31.9932 6.78498 31.9932 6.81424C31.9935 7.22986 31.9937 7.64548 31.9939 8.06109C31.994 8.26492 31.9941 8.46875 31.9942 8.67258C31.9942 8.69286 31.9942 8.71314 31.9942 8.73404C31.9946 9.39107 31.9952 10.0481 31.9959 10.7051C31.9967 11.3805 31.9972 12.0559 31.9974 12.7312C31.9974 12.8267 31.9974 12.9222 31.9975 13.0176C31.9975 13.0364 31.9975 13.0552 31.9975 13.0746C31.9976 13.3766 31.9979 13.6786 31.9984 13.9807C31.9989 14.2846 31.9991 14.5884 31.999 14.8923C31.9989 15.0569 31.999 15.2214 31.9994 15.386C31.9998 15.5368 31.9998 15.6876 31.9996 15.8384C31.9995 15.8928 31.9996 15.9472 31.9999 16.0016C32.0011 16.2754 31.9925 16.532 31.9269 16.7992C31.896 16.929 31.8958 17.056 31.8923 17.1889C31.8801 17.2775 31.8662 17.2902 31.8 17.3468C31.7807 17.4042 31.7807 17.4042 31.7712 17.4659C31.7514 17.5764 31.7514 17.5764 31.6916 17.634C31.6877 17.6631 31.6837 17.6922 31.6797 17.7221C31.6638 17.8211 31.6445 17.8456 31.5831 17.9212C31.5646 17.982 31.5465 18.0429 31.5289 18.104C31.511 18.1212 31.4931 18.1384 31.4747 18.1562C31.4658 18.182 31.4568 18.2079 31.4476 18.2345C31.4205 18.3129 31.4205 18.3129 31.3663 18.3651C31.3537 18.4047 31.3537 18.4047 31.3409 18.445C31.3266 18.483 31.3266 18.483 31.3121 18.5217C31.2852 18.5303 31.2584 18.539 31.2308 18.5478C31.1977 18.6132 31.1977 18.6132 31.1765 18.6784C31.1586 18.6784 31.1408 18.6784 31.1223 18.6784C31.1123 18.7067 31.1123 18.7067 31.102 18.7355C31.0649 18.816 31.0177 18.8717 30.9597 18.9395C30.9475 18.9597 30.9354 18.9799 30.9228 19.0007C30.8254 19.1526 30.6904 19.2926 30.5446 19.4029C30.4645 19.4675 30.4198 19.5341 30.3633 19.6183C30.3193 19.6629 30.2741 19.7064 30.2278 19.7489C30.1959 19.7804 30.1959 19.7804 30.1634 19.8125C30.1083 19.8643 30.053 19.9119 29.994 19.9594C29.9254 20.0148 29.8741 20.0707 29.8212 20.1405C29.8033 20.1405 29.7854 20.1405 29.767 20.1405C29.7603 20.1556 29.7536 20.1707 29.7467 20.1862C29.7078 20.2535 29.6644 20.2988 29.6043 20.3494C29.5865 20.3494 29.5686 20.3494 29.5501 20.3494C29.5322 20.3838 29.5143 20.4183 29.4959 20.4538C29.478 20.4538 29.4601 20.4538 29.4417 20.4538C29.4323 20.4825 29.4323 20.4825 29.4227 20.5117C29.3808 20.5982 29.3322 20.6402 29.257 20.7018C29.1435 20.7963 29.1435 20.7963 29.0368 20.8977C28.9809 20.9499 28.9809 20.9499 28.8996 20.976C28.8668 21.0282 28.8668 21.0282 28.8454 21.0804C28.8275 21.0804 28.8096 21.0804 28.7911 21.0804C28.7732 21.1149 28.7554 21.1494 28.7369 21.1849C28.719 21.1849 28.7011 21.1849 28.6827 21.1849C28.6766 21.1989 28.6704 21.2129 28.6641 21.2273C28.5542 21.4189 28.3724 21.574 28.1948 21.7071C28.1769 21.7071 28.159 21.7071 28.1406 21.7071C28.1227 21.7415 28.1048 21.776 28.0864 21.8115C28.0685 21.8115 28.0506 21.8115 28.0321 21.8115C28.0254 21.8266 28.0187 21.8416 28.0118 21.8572C27.973 21.9245 27.9296 21.9697 27.8695 22.0204C27.8516 22.0204 27.8337 22.0204 27.8153 22.0204C27.8091 22.0349 27.803 22.0494 27.7967 22.0644C27.751 22.1418 27.6916 22.193 27.6255 22.2553C27.6 22.2805 27.5744 22.3057 27.549 22.3309C27.5231 22.3563 27.4972 22.3817 27.4714 22.4071C27.4582 22.4202 27.4451 22.4333 27.4315 22.4468C27.3978 22.4797 27.3627 22.5113 27.3274 22.5425C27.3095 22.5425 27.2916 22.5425 27.2732 22.5425C27.2553 22.577 27.2374 22.6115 27.2189 22.647C27.2011 22.647 27.1832 22.647 27.1647 22.647C27.1468 22.6814 27.1289 22.7159 27.1105 22.7514C27.0926 22.7514 27.0747 22.7514 27.0563 22.7514C27.0502 22.7703 27.044 22.7891 27.0377 22.8085C26.9565 22.9761 26.7678 23.1015 26.6273 23.2262C26.4488 23.3842 26.4488 23.3842 26.2888 23.5592C26.2353 23.6229 26.1788 23.6672 26.1093 23.7142C26.0322 23.7675 25.9785 23.8169 25.9246 23.8921C25.8425 24.0053 25.7405 24.0925 25.6341 24.1836C25.5295 24.2739 25.437 24.3701 25.3453 24.4726C25.2451 24.5794 25.1396 24.6897 24.9962 24.7357C24.9884 24.7508 24.9805 24.7659 24.9725 24.7814C24.932 24.8594 24.8707 24.9107 24.8064 24.9707C24.7283 25.0445 24.6505 25.1186 24.5726 25.1926C24.552 25.2121 24.5313 25.2316 24.51 25.2517C24.49 25.2707 24.4701 25.2897 24.4496 25.3093C24.4316 25.3264 24.4136 25.3435 24.395 25.3611C24.3424 25.4145 24.3424 25.4145 24.3028 25.4855C24.2901 25.5052 24.2774 25.5248 24.2643 25.5451C24.2193 25.5546 24.1741 25.5634 24.1288 25.5712C24.1014 25.6173 24.1014 25.6173 24.0746 25.6757C24.0488 25.7019 24.0221 25.7274 23.9949 25.7523C23.925 25.8167 23.8797 25.8824 23.8306 25.9629C23.8127 25.9629 23.7948 25.9629 23.7764 25.9629C23.7674 25.9887 23.7585 26.0146 23.7493 26.0412C23.6832 26.1114 23.6832 26.1114 23.6137 26.1717C23.5958 26.1717 23.578 26.1717 23.5595 26.1717C23.5506 26.1976 23.5416 26.2234 23.5324 26.2501C23.5145 26.2587 23.4966 26.2673 23.4782 26.2762C23.4659 26.2966 23.4536 26.3171 23.4409 26.3382C23.3963 26.4076 23.3602 26.4427 23.2885 26.485C23.2706 26.485 23.2527 26.485 23.2342 26.485C23.2164 26.5195 23.1985 26.554 23.18 26.5895C23.1621 26.5895 23.1442 26.5895 23.1258 26.5895C23.1202 26.604 23.1146 26.6186 23.1089 26.6335C23.0578 26.7163 22.9861 26.7641 22.909 26.8245C22.8911 26.8503 22.8732 26.8762 22.8547 26.9028C22.8369 26.9028 22.819 26.9028 22.8005 26.9028C22.7944 26.9173 22.7882 26.9319 22.7819 26.9468C22.7369 27.0232 22.6754 27.077 22.6108 27.1378C22.5798 27.1675 22.5488 27.1974 22.5179 27.2272C21.8362 27.8838 21.8362 27.8838 21.7878 27.9304C21.7483 27.9685 21.7087 28.0066 21.6692 28.0448C21.617 28.095 21.5647 28.145 21.5123 28.1949C21.2534 28.442 21.2534 28.442 21.0115 28.7043C20.9089 28.8229 20.824 28.9119 20.6862 28.9915C20.6348 29.0453 20.5864 29.1007 20.5385 29.1575C20.5246 29.1716 20.5107 29.1858 20.4965 29.2004C20.4786 29.2004 20.4607 29.2004 20.4422 29.2004C20.4333 29.2262 20.4244 29.2521 20.4151 29.2787C20.3767 29.3142 20.3767 29.3142 20.3287 29.3505C20.2603 29.4048 20.2018 29.4591 20.1458 29.5251C20.073 29.6098 19.9925 29.6788 19.9058 29.75C19.7408 29.8901 19.5878 30.0426 19.4471 30.2054C19.3939 30.2654 19.3346 30.3195 19.2766 30.3753C19.2489 30.4074 19.2213 30.4395 19.1936 30.4716C19.0323 30.6512 18.837 30.8019 18.6261 30.9236C18.6037 30.9462 18.5814 30.9688 18.5583 30.9921C18.4868 31.0576 18.4514 31.0723 18.355 31.0803C18.355 31.0975 18.355 31.1147 18.355 31.1325C18.3343 31.1395 18.3136 31.1465 18.2923 31.1537C18.2216 31.1838 18.1904 31.2104 18.1382 31.263C18.1113 31.2716 18.0845 31.2803 18.0568 31.2891C18.0479 31.3064 18.039 31.3236 18.0297 31.3414C17.9638 31.3693 17.9638 31.3693 17.8823 31.3968C17.8555 31.4061 17.8287 31.4153 17.8011 31.4248C17.7316 31.4458 17.7316 31.4458 17.6773 31.4458C17.6706 31.4625 17.6639 31.4792 17.657 31.4964C17.6231 31.5502 17.6231 31.5502 17.574 31.5682C17.5544 31.5709 17.5349 31.5736 17.5147 31.5763C17.3896 31.5978 17.2806 31.6377 17.1641 31.6859C17.1081 31.7069 17.1081 31.7069 17.0539 31.7069C17.0539 31.7327 17.0539 31.7586 17.0539 31.7852C16.9465 31.7938 16.8392 31.8024 16.7286 31.8113C16.7286 31.8286 16.7286 31.8458 16.7286 31.8635C16.6996 31.8686 16.6705 31.8736 16.6406 31.8788C16.6027 31.8857 16.5649 31.8926 16.527 31.8994C16.5078 31.9027 16.4887 31.906 16.4689 31.9094C16.4196 31.9185 16.3707 31.93 16.322 31.9419C16.3131 31.9591 16.3041 31.9763 16.2949 31.9941C16.1141 31.9954 15.9332 31.9963 15.7524 31.997C15.691 31.9972 15.6295 31.9976 15.5681 31.998C15.4795 31.9987 15.3908 31.999 15.3022 31.9992C15.2614 31.9996 15.2614 31.9996 15.2198 32C15.0547 32 14.9093 31.9838 14.7498 31.9419C14.7409 31.9332 14.7319 31.9246 14.7227 31.9158C14.6397 31.9017 14.5564 31.8905 14.4729 31.8791C14.3974 31.8635 14.3974 31.8635 14.3432 31.8113C14.2877 31.8005 14.2317 31.7922 14.1755 31.7852C14.0456 31.7677 13.9258 31.7452 13.8011 31.7069C13.7798 31.7026 13.7586 31.6983 13.7367 31.6938C13.7222 31.6895 13.7076 31.6852 13.6926 31.6808C13.6837 31.6635 13.6748 31.6463 13.6655 31.6286C13.6083 31.6049 13.6083 31.6049 13.5419 31.5861C13.5195 31.5793 13.4971 31.5725 13.474 31.5655C13.4567 31.5605 13.4394 31.5554 13.4216 31.5502C13.4216 31.533 13.4216 31.5158 13.4216 31.498C13.4037 31.498 13.3858 31.498 13.3674 31.498C13.3674 31.4808 13.3674 31.4635 13.3674 31.4458C13.3316 31.4372 13.2958 31.4286 13.2589 31.4197C13.2589 31.3938 13.2589 31.368 13.2589 31.3414C13.2405 31.3387 13.222 31.336 13.203 31.3332C13.1063 31.3114 13.0241 31.2762 12.9337 31.2369C12.9337 31.2111 12.9337 31.1852 12.9337 31.1586C12.9079 31.1543 12.8822 31.15 12.8557 31.1455C12.6831 31.0988 12.5408 30.9657 12.4189 30.8434C12.3662 30.7907 12.3662 30.7907 12.2986 30.7565C12.2121 30.7047 12.1564 30.642 12.09 30.5679C11.9997 30.4613 11.9997 30.4613 11.8765 30.4014C11.8366 30.3624 11.8366 30.3624 11.7935 30.3117C11.6564 30.156 11.5113 29.9929 11.3344 29.8792C11.3068 29.836 11.2797 29.7924 11.253 29.7487C11.2218 29.7143 11.1893 29.6809 11.1557 29.6486C11.1361 29.6297 11.1166 29.6109 11.0965 29.5914C11.0752 29.5711 11.0539 29.5508 11.032 29.5298C10.9982 29.4973 10.9982 29.4973 10.9637 29.464C10.9021 29.4047 10.8403 29.3455 10.7785 29.2863C10.7137 29.2243 10.6491 29.162 10.5844 29.0998C10.4619 28.982 10.3393 28.8643 10.2166 28.7466C10.0774 28.6132 9.9384 28.4795 9.7994 28.3459C9.56164 28.1174 9.32376 27.8889 9.08575 27.6606C8.98584 27.5647 8.88598 27.4688 8.78631 27.3727C8.76392 27.3512 8.74152 27.3296 8.71844 27.3074C7.40387 26.0412 7.40387 26.0412 7.33972 25.9794C7.27403 25.9161 7.20826 25.8529 7.14247 25.7898C7.11799 25.7663 7.09352 25.7428 7.06831 25.7186C7.05528 25.7061 7.04226 25.6936 7.02885 25.6807C6.72807 25.3919 6.42744 25.1029 6.12691 24.8139C5.95327 24.647 5.77959 24.48 5.60579 24.3132C5.45388 24.1674 5.30206 24.0215 5.15035 23.8755C5.07014 23.7983 4.98988 23.7212 4.9095 23.6441C4.83396 23.5717 4.75855 23.4992 4.68323 23.4266C4.6556 23.4 4.62792 23.3734 4.60019 23.3469C4.5623 23.3107 4.52458 23.2743 4.48688 23.2378C4.46574 23.2175 4.44461 23.1972 4.42283 23.1763C4.36735 23.1164 4.32786 23.0559 4.28658 22.9864C4.25411 22.9508 4.22034 22.9164 4.18546 22.883C4.16591 22.8642 4.14636 22.8454 4.12622 22.8261C4.1059 22.8068 4.08558 22.7876 4.06464 22.7677C4.04485 22.7487 4.02506 22.7296 4.00466 22.71C3.91239 22.6219 3.81927 22.536 3.72052 22.4546C3.56531 22.3258 3.42427 22.1827 3.28119 22.0416C3.24418 22.0052 3.20699 21.9689 3.1698 21.9327C3.14804 21.9113 3.12629 21.8899 3.10387 21.8678C3.04339 21.8106 3.04339 21.8106 2.97708 21.7773C2.86677 21.7105 2.78214 21.6215 2.6912 21.5322C2.66099 21.5029 2.66099 21.5029 2.63018 21.4731C2.56607 21.4108 2.50214 21.3485 2.43824 21.286C2.37402 21.2235 2.30976 21.1609 2.24542 21.0985C2.20544 21.0596 2.16552 21.0207 2.12569 20.9817C2.10768 20.9642 2.08967 20.9467 2.07111 20.9287C2.05527 20.9132 2.03942 20.8977 2.0231 20.8818C1.98336 20.8428 1.98336 20.8428 1.92829 20.8193C1.91757 20.801 1.90684 20.7827 1.8958 20.7638C1.8309 20.6641 1.74925 20.5892 1.66209 20.5075C1.64422 20.4904 1.62635 20.4734 1.60794 20.4559C1.55108 20.4018 1.49405 20.3478 1.43698 20.2939C1.36164 20.2227 1.28649 20.1514 1.21144 20.0799C1.19405 20.0636 1.17666 20.0473 1.15874 20.0305C1.13471 20.0076 1.13471 20.0076 1.1102 19.9842C1.09606 19.9709 1.08192 19.9575 1.06735 19.9438C1.03377 19.9055 1.03376 19.9055 1.00666 19.8272C0.988768 19.8186 0.970877 19.81 0.952444 19.8011C0.877186 19.6916 0.82487 19.5742 0.77032 19.4543C0.736745 19.3821 0.736745 19.3821 0.690694 19.314C0.654269 19.2528 0.654269 19.2528 0.654269 19.1745C0.628552 19.1691 0.602834 19.1637 0.576337 19.1581C0.491629 19.1222 0.491629 19.1222 0.457745 19.0472C0.451036 19.0203 0.444327 18.9933 0.437415 18.9656C0.427911 18.9489 0.418406 18.9322 0.408614 18.915C0.383201 18.8611 0.383201 18.8611 0.369648 18.7649C0.362939 18.7221 0.362939 18.7221 0.356095 18.6784C0.338204 18.6698 0.320314 18.6611 0.301881 18.6523C0.301881 18.6178 0.301881 18.5833 0.301881 18.5478C0.28399 18.5478 0.2661 18.5478 0.247667 18.5478C0.201204 18.3742 0.157623 18.2015 0.126428 18.0246C0.115302 17.9678 0.115302 17.9678 0.0579196 17.9212C0.0497069 17.869 0.0497069 17.869 0.0476487 17.8056C0.0467227 17.7826 0.0457967 17.7597 0.0448427 17.7361C0.0441264 17.7121 0.0434101 17.6881 0.042672 17.6634C0.0410412 17.6161 0.0393152 17.5689 0.0374836 17.5216C0.036835 17.5006 0.0361864 17.4796 0.0355181 17.458C0.0328551 17.4002 0.0328551 17.4002 0.0170675 17.3508C-0.00219141 17.2698 0.000182462 17.1919 0.000105886 17.109C7.99523e-05 17.0911 5.31912e-05 17.0732 2.64715e-05 17.0547C8.06326e-06 17.0169 5.86436e-05 16.9791 0.000172065 16.9412C0.000316251 16.8839 0.000173771 16.8266 0 16.7694C1.79303e-05 16.7324 5.26973e-05 16.6955 0.000105886 16.6586C0.000136461 16.6253 0.000167035 16.5921 0.000198536 16.5578C0.00390924 16.4534 0.0164562 16.3538 0.0308128 16.2502C0.0342632 16.2073 0.037219 16.1643 0.0393896 16.1213C0.0405252 16.0996 0.0416608 16.0779 0.0428309 16.0555C0.0438966 16.0336 0.0449624 16.0117 0.0460604 15.9891C0.047231 15.9664 0.0484015 15.9437 0.0496076 15.9203C0.0524506 15.8649 0.0551954 15.8095 0.0579196 15.7541C0.102646 15.7455 0.147372 15.7369 0.193454 15.728C0.19251 15.7066 0.191567 15.6852 0.190595 15.6632C0.189861 15.635 0.189127 15.6069 0.188371 15.5779C0.187428 15.55 0.186484 15.5222 0.185512 15.4935C0.194425 15.4051 0.217146 15.3769 0.274774 15.3103C0.283971 15.2494 0.293001 15.1885 0.301881 15.1275C0.327658 15.0833 0.354768 15.0397 0.383201 14.997C0.392706 14.9695 0.40221 14.9421 0.412002 14.9138C0.437415 14.8403 0.437415 14.8403 0.491629 14.7881C0.519765 14.71 0.543566 14.6311 0.567655 14.5517C0.602584 14.4688 0.64068 14.43 0.708483 14.3704C0.746144 14.3099 0.78178 14.2494 0.81691 14.1876C0.921367 14.0104 1.03628 13.8498 1.1693 13.6915C1.18761 13.669 1.20592 13.6466 1.22478 13.6234C1.33028 13.4943 1.43948 13.3771 1.56165 13.2623C1.60374 13.2227 1.64573 13.183 1.68772 13.1432C1.70194 13.13 1.71616 13.1167 1.73081 13.103C1.75152 13.0834 1.75152 13.0834 1.77264 13.0633C1.78498 13.0517 1.79732 13.04 1.81003 13.0281C1.84955 12.9868 1.84955 12.9868 1.87674 12.9318C1.95059 12.8232 2.04394 12.7378 2.13941 12.6467C2.16089 12.6261 2.18236 12.6054 2.20448 12.584C2.27543 12.5157 2.34656 12.4476 2.41769 12.3795C2.4671 12.332 2.51649 12.2845 2.56588 12.237C2.68264 12.1247 2.79952 12.0126 2.91646 11.9005C3.04907 11.7733 3.18152 11.646 3.31396 11.5187C3.54053 11.3009 3.76722 11.0833 3.99403 10.8657C4.0305 10.8307 4.06696 10.7958 4.10342 10.7608C4.13335 10.7321 4.1633 10.7034 4.19328 10.6747C4.2508 10.6196 4.30505 10.565 4.35435 10.5029C4.42002 10.4302 4.47329 10.3983 4.55765 10.3495C4.59152 10.3111 4.62533 10.2725 4.65771 10.2329C4.70364 10.1811 4.7579 10.1411 4.81294 10.0986C4.87875 10.0429 4.93278 9.97843 4.98935 9.91415C5.0819 9.81426 5.1826 9.72238 5.28255 9.62939C5.34877 9.56986 5.34877 9.56986 5.37085 9.48794C5.39769 9.47932 5.42453 9.4707 5.45217 9.46183C5.48799 9.41843 5.51718 9.37275 5.54768 9.32577C5.58771 9.27906 5.58771 9.27906 5.64764 9.24541C5.75303 9.18314 5.83322 9.10237 5.91977 9.01797C5.93703 9.00154 5.95429 8.98512 5.97207 8.9682C5.9885 8.95231 6.00492 8.93643 6.02184 8.92006C6.03674 8.90565 6.05163 8.89125 6.06698 8.87641C6.10896 8.83314 6.10896 8.83314 6.12985 8.75688C6.17452 8.72998 6.21971 8.70385 6.26538 8.67855C6.27432 8.66132 6.28327 8.64408 6.29249 8.62633C6.31038 8.62633 6.32827 8.62633 6.3467 8.62633C6.35564 8.60048 6.36459 8.57463 6.37381 8.548C6.4096 8.51414 6.4096 8.51414 6.45852 8.4762C6.57784 8.37879 6.68848 8.27421 6.79904 8.16779C6.81643 8.15115 6.83382 8.13452 6.85174 8.11738C6.92847 8.04325 7.00286 7.96899 7.0717 7.88793C7.12073 7.83097 7.16515 7.78638 7.22428 7.74025C7.39493 7.6004 7.54958 7.44377 7.70698 7.29041C7.76839 7.23075 7.83009 7.17138 7.89179 7.112C7.91777 7.08698 7.94374 7.06195 7.96972 7.03693C8.51863 6.50822 8.51863 6.50822 8.55858 6.46976C8.59429 6.43535 8.62996 6.4009 8.66564 6.36646C8.73465 6.30016 8.80421 6.23445 8.87388 6.1688C8.914 6.13074 8.95407 6.09264 8.99413 6.05452C9.02169 6.02838 9.04932 6.0023 9.07702 5.9763C9.11736 5.93839 9.15744 5.90023 9.19747 5.86202C9.2213 5.83947 9.24514 5.81692 9.2697 5.79368C9.32788 5.72884 9.35191 5.67686 9.38266 5.59766C9.42753 5.57106 9.47273 5.54497 9.5182 5.51933C9.53161 5.49725 9.54503 5.47518 9.55886 5.45243C9.59952 5.38879 9.59952 5.38879 9.66188 5.36666C9.75294 5.32921 9.79721 5.28082 9.86211 5.20929C9.88291 5.18674 9.9037 5.16419 9.92512 5.14095C9.97965 5.08021 9.97965 5.08021 10.005 5.01979C10.0445 4.95154 10.099 4.93245 10.1688 4.89271C10.2322 4.83951 10.291 4.78227 10.35 4.72463C10.3658 4.70967 10.3815 4.69471 10.3977 4.6793C10.4129 4.66468 10.428 4.65005 10.4435 4.63499C10.464 4.61522 10.464 4.61522 10.4848 4.59506C10.5248 4.54913 10.5484 4.50266 10.5754 4.44885C10.6298 4.38914 10.6787 4.34734 10.7499 4.30689C10.8605 4.24191 10.9376 4.16053 11.0091 4.05722C11.0359 4.0486 11.0627 4.03998 11.0904 4.03111C11.0993 4.00526 11.1083 3.97941 11.1175 3.95278C11.1569 3.92128 11.1569 3.92128 11.1971 3.88914C11.2696 3.83069 11.3025 3.80069 11.3344 3.7178C11.3612 3.7178 11.388 3.7178 11.4157 3.7178C11.4246 3.68333 11.4336 3.64887 11.4428 3.61336C11.4696 3.61336 11.4965 3.61336 11.5241 3.61336C11.5258 3.59774 11.5275 3.58213 11.5292 3.56604C11.5599 3.48632 11.6121 3.47341 11.6867 3.4306C11.7002 3.40906 11.7136 3.38752 11.7274 3.36532C11.7757 3.28778 11.8242 3.26762 11.9036 3.22172C11.9309 3.1783 11.958 3.13479 11.9849 3.09118C12.0118 3.09118 12.0386 3.09118 12.0662 3.09118C12.0674 3.07502 12.0685 3.05887 12.0696 3.04222C12.0775 3.02391 12.0853 3.0056 12.0933 2.98674C12.1163 2.98028 12.1392 2.97381 12.1628 2.96716C12.2991 2.91942 12.3755 2.82619 12.4728 2.72565C12.5272 2.67191 12.5772 2.62404 12.6406 2.58041C12.6976 2.54388 12.6976 2.54388 12.7168 2.46455C12.7631 2.42151 12.7631 2.42151 12.8201 2.37644C12.9056 2.3068 12.9724 2.23572 13.0421 2.15124C13.0909 2.10927 13.1407 2.06906 13.1915 2.02937C13.2353 1.99587 13.2353 1.99587 13.2589 1.94237C13.2858 1.94237 13.3126 1.94237 13.3403 1.94237C13.3475 1.9176 13.3548 1.89283 13.3623 1.86731C13.3945 1.78571 13.3945 1.78571 13.4758 1.7335C13.4847 1.70765 13.4937 1.6818 13.5029 1.65517C13.5639 1.60938 13.5639 1.60938 13.6384 1.56215C13.736 1.50525 13.736 1.50525 13.8011 1.42019C13.8413 1.40726 13.8413 1.40726 13.8824 1.39408C13.9298 1.34903 13.9298 1.34903 13.9756 1.29453C14.0835 1.17053 14.1979 1.06432 14.328 0.961642C14.3531 0.941684 14.3782 0.921725 14.4041 0.901162C14.4721 0.850731 14.5398 0.808222 14.6143 0.767455C14.7132 0.718627 14.7132 0.718627 14.7769 0.636908C14.8306 0.617997 14.885 0.600945 14.9396 0.58469C15.0722 0.541366 15.186 0.491107 15.3072 0.423139C15.4294 0.356736 15.5056 0.331889 15.6443 0.349707C15.6533 0.315243 15.6622 0.280779 15.6714 0.24527C15.6898 0.242409 15.7081 0.239549 15.7269 0.236601C15.7511 0.232461 15.7753 0.228322 15.8002 0.224056C15.8241 0.220119 15.848 0.216181 15.8726 0.212124C15.9438 0.197327 15.9438 0.197327 15.9955 0.152766C16.0697 0.101847 16.1231 0.104233 16.2136 0.101669C16.3304 0.0982948 16.4294 0.0815953 16.5405 0.0493768C16.7728 -0.0071224 17.0032 -0.000306946 17.2411 0.000867911Z" fill="#F78418"/>
<path d="M20.6664 15.9235C20.6981 15.9236 20.7298 15.9236 20.7625 15.9237C20.9542 15.9248 21.1457 15.928 21.3373 15.9365C21.3577 15.9373 21.378 15.9381 21.399 15.939C21.5148 15.9452 21.6137 15.9648 21.7219 16.0051C21.7219 16.0223 21.7219 16.0395 21.7219 16.0573C21.7498 16.0564 21.7498 16.0564 21.7783 16.0554C21.815 16.0547 21.815 16.0547 21.8523 16.054C21.8765 16.0534 21.9008 16.0528 21.9257 16.0522C21.9929 16.0573 21.9929 16.0573 22.0743 16.1095C22.1366 16.1249 22.1991 16.1358 22.2624 16.147C22.3182 16.1617 22.3182 16.1617 22.3724 16.2139C22.4173 16.233 22.4623 16.2519 22.5076 16.27C22.5659 16.2938 22.6235 16.3185 22.6808 16.3445C22.6989 16.3526 22.717 16.3606 22.7356 16.369C22.779 16.3967 22.779 16.3967 22.8061 16.475C22.8565 16.491 22.8565 16.491 22.9146 16.5011C23.008 16.5377 23.0616 16.5886 23.1314 16.6578C23.1612 16.6819 23.1912 16.7058 23.2212 16.7296C23.3127 16.8041 23.3893 16.8865 23.4669 16.9742C23.5444 17.0607 23.63 17.1388 23.7159 17.2175C23.81 17.3128 23.8773 17.4017 23.9192 17.5276C23.9276 17.5507 23.936 17.5739 23.9446 17.5977C23.9715 17.6063 23.9983 17.615 24.026 17.6238C24.0447 17.6758 24.0628 17.7281 24.0802 17.7805C24.1071 17.8068 24.1342 17.8329 24.1615 17.8588C24.1912 17.9076 24.1912 17.9076 24.2174 17.96C24.2266 17.9783 24.2358 17.9966 24.2452 18.0155C24.265 18.0573 24.283 18.0999 24.3004 18.1428C24.3217 18.2025 24.3217 18.2025 24.3783 18.2505C24.3896 18.307 24.3896 18.307 24.3953 18.3712C24.3973 18.3925 24.3993 18.4139 24.4014 18.4359C24.4028 18.4522 24.4041 18.4686 24.4055 18.4854C24.4323 18.4941 24.4591 18.5027 24.4868 18.5115C24.4881 18.5374 24.4894 18.5632 24.4908 18.5899C24.4928 18.6247 24.4949 18.6595 24.4969 18.6943C24.4988 18.7282 24.5007 18.7622 24.5027 18.7971C24.5085 18.8704 24.5208 18.9277 24.5414 19.0001C24.5717 19.1141 24.5751 19.2209 24.5734 19.3381C24.5733 19.3586 24.5732 19.3792 24.5732 19.4004C24.5729 19.4653 24.5722 19.5302 24.5715 19.5951C24.5712 19.6394 24.571 19.6837 24.5707 19.7281C24.5701 19.836 24.5692 19.944 24.5681 20.052C24.5502 20.052 24.5323 20.052 24.5139 20.052C24.4562 20.2227 24.4315 20.3967 24.4055 20.5742C24.3876 20.5742 24.3697 20.5742 24.3512 20.5742C24.3519 20.5924 24.3525 20.6107 24.3531 20.6295C24.3536 20.6532 24.3541 20.677 24.3546 20.7015C24.3556 20.7369 24.3556 20.7369 24.3565 20.7731C24.3512 20.8353 24.3512 20.8353 24.297 20.8875C24.2909 20.9401 24.2847 20.9926 24.2792 21.0453C24.2669 21.1131 24.2347 21.1492 24.1886 21.2008C24.1813 21.2202 24.1741 21.2396 24.1666 21.2595C24.1357 21.3284 24.1025 21.3739 24.0548 21.4325C23.9981 21.5023 23.9665 21.5527 23.9311 21.6365C23.8895 21.7249 23.8489 21.762 23.7693 21.8195C23.724 21.8566 23.696 21.8939 23.6634 21.9416C23.6006 22.0303 23.5291 22.0937 23.4438 22.1622C23.3875 22.209 23.3336 22.2567 23.2799 22.306C23.263 22.3215 23.2461 22.337 23.2287 22.3529C23.1946 22.3841 23.1607 22.4155 23.127 22.4471C23.1112 22.4614 23.0955 22.4758 23.0792 22.4907C23.0651 22.5037 23.051 22.5168 23.0365 22.5302C22.9959 22.5585 22.9959 22.5585 22.9146 22.5585C22.9146 22.5757 22.9146 22.5929 22.9146 22.6107C22.7165 22.6863 22.7165 22.6863 22.6062 22.7021C22.5828 22.7064 22.5593 22.7107 22.5351 22.7151C22.5172 22.741 22.4993 22.7668 22.4809 22.7935C22.3741 22.8284 22.2665 22.8524 22.1556 22.8718C22.1556 22.889 22.1556 22.9062 22.1556 22.924C22.1248 22.9272 22.0941 22.9305 22.0624 22.9338C22.0305 22.9392 21.9987 22.9446 21.9658 22.9501C21.9569 22.9673 21.9479 22.9846 21.9387 23.0023C21.7956 23.0023 21.6525 23.0023 21.505 23.0023C21.505 23.0282 21.505 23.054 21.505 23.0807C21.4293 23.1012 21.3615 23.1103 21.283 23.111C21.2608 23.1112 21.2386 23.1115 21.2157 23.1117C21.1918 23.1118 21.1678 23.112 21.1432 23.1121C21.1181 23.1122 21.093 23.1124 21.0672 23.1125C21.0138 23.1128 20.9605 23.1129 20.9071 23.113C20.8274 23.1133 20.7476 23.1141 20.6678 23.1149C20.3336 23.1167 20.017 23.0895 19.6889 23.0284C19.6799 22.994 19.671 22.9595 19.6618 22.924C19.6271 22.9208 19.5924 22.9175 19.5567 22.9142C19.4517 22.9044 19.4517 22.9044 19.3907 22.8457C19.3278 22.8307 19.2648 22.8208 19.2008 22.8107C19.183 22.805 19.1651 22.7993 19.1467 22.7935C19.1333 22.7547 19.1333 22.7547 19.1196 22.7151C19.0769 22.7176 19.0769 22.7176 19.0332 22.72C18.9229 22.7148 18.8818 22.6983 18.7943 22.6368C18.7737 22.6233 18.753 22.6099 18.7317 22.596C18.7166 22.5836 18.7015 22.5712 18.6859 22.5585C18.6859 22.5412 18.6859 22.524 18.6859 22.5063C18.668 22.5014 18.6501 22.4966 18.6317 22.4916C18.5143 22.4374 18.4281 22.3565 18.3335 22.2713C18.3117 22.2519 18.3117 22.2519 18.2895 22.2321C18.2577 22.2029 18.2276 22.172 18.198 22.1407C18.198 22.1235 18.198 22.1063 18.198 22.0885C18.1742 22.0847 18.1742 22.0847 18.1499 22.0809C18.0771 22.0586 18.0443 22.0284 17.9913 21.9759C17.9753 21.9604 17.9593 21.9449 17.9428 21.9289C17.8998 21.8796 17.8998 21.8796 17.8738 21.8247C17.8496 21.771 17.8496 21.771 17.7923 21.7498C17.7198 21.7145 17.7035 21.6764 17.6677 21.6071C17.6227 21.5201 17.6227 21.5201 17.5569 21.4479C17.5203 21.4097 17.5203 21.4097 17.5203 21.3052C17.5024 21.3052 17.4845 21.3052 17.4661 21.3052C17.4609 21.2892 17.4556 21.2731 17.4502 21.2566C17.4432 21.2355 17.4361 21.2144 17.4288 21.1926C17.4219 21.1717 17.415 21.1508 17.4079 21.1293C17.3851 21.0643 17.3851 21.0643 17.3306 20.9919C17.3172 20.9523 17.3172 20.9523 17.3035 20.912C17.2822 20.8332 17.2822 20.8332 17.2221 20.783C17.043 20.3691 16.9957 19.8964 16.9951 19.4531C16.9951 19.4223 16.995 19.3916 16.995 19.3599C16.9972 19.1976 17.015 19.0591 17.0595 18.9032C17.0667 18.808 17.0696 18.7133 17.072 18.6179C17.0899 18.5199 17.1147 18.5148 17.195 18.4593C17.212 18.389 17.212 18.389 17.212 18.3125C17.2147 18.2347 17.2147 18.2347 17.2221 18.1721C17.249 18.1592 17.249 18.1592 17.2764 18.146C17.2853 18.1202 17.2943 18.0943 17.3035 18.0677C17.3214 18.0677 17.3392 18.0677 17.3577 18.0677C17.3666 18.0332 17.3756 17.9988 17.3848 17.9633C17.4027 17.9633 17.4206 17.9633 17.439 17.9633C17.444 17.9188 17.444 17.9188 17.4492 17.8735C17.4576 17.8275 17.4576 17.8275 17.4661 17.7805C17.4929 17.7676 17.4929 17.7676 17.5203 17.7544C17.5287 17.7339 17.5371 17.7135 17.5457 17.6924C17.5745 17.6238 17.5745 17.6238 17.6135 17.5879C17.6629 17.5439 17.6629 17.5439 17.6897 17.4623C17.7646 17.2842 17.9174 17.1577 18.0687 17.0386C18.1424 16.975 18.2037 16.9021 18.2663 16.8285C18.2795 16.8153 18.2928 16.802 18.3064 16.7883C18.3243 16.7883 18.3422 16.7883 18.3606 16.7883C18.3662 16.7738 18.3718 16.7593 18.3776 16.7443C18.466 16.6011 18.6166 16.5284 18.7659 16.4544C18.8212 16.4229 18.8578 16.3881 18.9028 16.3445C18.9565 16.3257 19.0108 16.3084 19.0654 16.2923C19.198 16.2441 19.198 16.2441 19.3094 16.1617C19.368 16.1566 19.368 16.1566 19.4347 16.1585C19.468 16.1592 19.468 16.1592 19.5019 16.1599C19.5273 16.1608 19.5273 16.1608 19.5533 16.1617C19.5533 16.1272 19.5533 16.0928 19.5533 16.0573C19.6336 16.0186 19.7115 16.0219 19.8007 16.0165C19.8354 16.0143 19.8701 16.0121 19.9059 16.0099C19.9327 16.0083 19.9595 16.0067 19.987 16.0051C19.987 15.9878 19.987 15.9706 19.987 15.9528C20.214 15.9312 20.4384 15.9225 20.6664 15.9235Z" fill="#FAF8F4"/>
<path d="M12.2996 7.59498C12.3229 7.59498 12.3462 7.59498 12.3703 7.59498C12.3952 7.59512 12.4202 7.59525 12.4458 7.59539C12.4844 7.59545 12.4844 7.59545 12.5238 7.5955C12.6058 7.59565 12.6878 7.59598 12.7699 7.59631C12.8255 7.59644 12.8812 7.59656 12.9368 7.59666C13.0732 7.59695 13.2095 7.5974 13.3459 7.59794C13.3548 7.62379 13.3638 7.64964 13.373 7.67627C13.4185 7.67864 13.4185 7.67864 13.465 7.68106C13.5049 7.68326 13.5448 7.68548 13.5848 7.68769C13.6048 7.68872 13.6248 7.68974 13.6454 7.6908C13.7316 7.69569 13.8056 7.70204 13.888 7.72849C13.897 7.74572 13.9059 7.76295 13.9151 7.7807C13.9769 7.79495 13.9769 7.79495 14.0507 7.80355C14.194 7.82608 14.3771 7.86016 14.4844 7.96347C14.5157 7.96724 14.547 7.97101 14.5792 7.97489C14.6105 7.97974 14.6419 7.98458 14.6741 7.98958C14.6831 8.00681 14.692 8.02404 14.7012 8.0418C14.7236 8.05041 14.7459 8.05903 14.769 8.06791C14.8367 8.09401 14.8367 8.09401 14.8639 8.14623C14.9089 8.17254 14.9541 8.19859 14.9994 8.22456C15.1589 8.32335 15.2676 8.43715 15.3824 8.58193C15.4451 8.65661 15.5191 8.71161 15.5957 8.77285C15.6981 8.88777 15.788 9.00735 15.8668 9.13838C15.8904 9.16893 15.9141 9.19938 15.938 9.22977C15.9948 9.3043 16.0106 9.36111 16.0294 9.45169C16.0828 9.48721 16.0828 9.48721 16.1379 9.50391C16.1379 9.55561 16.1379 9.60731 16.1379 9.66057C16.1558 9.66057 16.1737 9.66057 16.1921 9.66057C16.2 9.68793 16.2 9.68793 16.208 9.71585C16.215 9.73961 16.2221 9.76337 16.2294 9.78785C16.2397 9.82329 16.2397 9.82329 16.2503 9.85945C16.2696 9.92546 16.2696 9.92546 16.3276 9.97388C16.3329 10.0418 16.3329 10.0418 16.331 10.1207C16.3305 10.1469 16.33 10.1731 16.3295 10.2001C16.3286 10.2303 16.3286 10.2303 16.3276 10.2611C16.3455 10.2611 16.3634 10.2611 16.3818 10.2611C16.4483 10.3848 16.4423 10.4992 16.4394 10.6348C16.4392 10.6566 16.4389 10.6784 16.4387 10.7009C16.4381 10.7545 16.4371 10.808 16.4361 10.8616C16.4539 10.8616 16.4718 10.8616 16.4903 10.8616C16.4903 10.8961 16.4903 10.9305 16.4903 10.966C16.5082 10.966 16.526 10.966 16.5445 10.966C16.5501 11.2506 16.5487 11.5214 16.4903 11.8015C16.4724 11.8015 16.4545 11.8015 16.4361 11.8015C16.437 11.8229 16.4379 11.8443 16.4389 11.8664C16.4396 11.8945 16.4404 11.9227 16.4411 11.9517C16.4421 11.9795 16.443 12.0074 16.444 12.0361C16.435 12.1252 16.4108 12.1508 16.3547 12.2193C16.3433 12.2865 16.3412 12.3513 16.3386 12.4193C16.3255 12.4924 16.301 12.5091 16.2463 12.5587C16.2265 12.653 16.2265 12.653 16.2192 12.7415C16.1924 12.7501 16.1655 12.7587 16.1379 12.7676C16.1351 12.8004 16.1323 12.8333 16.1294 12.8671C16.1203 12.9375 16.1154 12.9703 16.0718 13.0287C16.0294 13.0548 16.0294 13.0548 15.9752 13.0548C15.9454 13.1101 15.9189 13.1646 15.8956 13.2228C15.8291 13.3773 15.7376 13.4811 15.5957 13.577C15.5778 13.577 15.56 13.577 15.5415 13.577C15.5404 13.5996 15.5393 13.6222 15.5381 13.6455C15.5074 13.7598 15.4524 13.8235 15.3518 13.8903C15.2738 13.9001 15.2738 13.9001 15.2162 13.8903C15.1984 13.9247 15.1805 13.9592 15.162 13.9947C15.1441 13.9947 15.1262 13.9947 15.1078 13.9947C15.0986 14.0189 15.0986 14.0189 15.0892 14.0437C15.0432 14.1154 14.998 14.1218 14.9181 14.1514C14.9091 14.1772 14.9002 14.2031 14.891 14.2297C14.8201 14.262 14.7485 14.2841 14.6741 14.308C14.6652 14.3339 14.6562 14.3597 14.647 14.3863C14.5998 14.4141 14.5998 14.4141 14.542 14.4386C14.4792 14.4653 14.4365 14.4841 14.3896 14.5329C14.3488 14.5691 14.3488 14.5691 14.2934 14.5768C14.2396 14.5742 14.1858 14.5717 14.132 14.5691C14.132 14.5863 14.132 14.6036 14.132 14.6213C14.0962 14.6299 14.0604 14.6386 14.0235 14.6474C14.0235 14.6647 14.0235 14.6819 14.0235 14.6996C13.952 14.7083 13.8804 14.7169 13.8067 14.7258C13.8067 14.743 13.8067 14.7602 13.8067 14.778C13.4748 14.8425 13.1484 14.8644 12.8105 14.8645C12.7917 14.8645 12.7728 14.8646 12.7534 14.8647C12.5525 14.8653 12.373 14.8587 12.1803 14.8041C12.0965 14.7956 12.0133 14.7912 11.9291 14.787C11.8548 14.7779 11.8122 14.7584 11.7466 14.7258C11.6843 14.7175 11.6229 14.7143 11.5601 14.7112C11.4896 14.697 11.4696 14.6712 11.4213 14.6213C11.3695 14.6015 11.3176 14.5819 11.265 14.564C10.9496 14.4546 10.6535 14.2974 10.4353 14.0485C10.3715 13.9761 10.309 13.919 10.2286 13.8642C10.1287 13.7958 10.054 13.7185 9.97584 13.6282C9.93198 13.5787 9.88591 13.5338 9.83724 13.4888C9.76778 13.4203 9.76778 13.4203 9.76778 13.3681C9.75156 13.3632 9.73535 13.3584 9.71864 13.3534C9.61258 13.2863 9.58962 13.1666 9.55092 13.0548C9.53303 13.0548 9.51514 13.0548 9.49671 13.0548C9.41899 12.9767 9.38757 12.8863 9.35164 12.786C9.33763 12.7413 9.33763 12.7413 9.30696 12.7153C9.3036 12.6868 9.30025 12.6583 9.29679 12.6289C9.28829 12.5351 9.28829 12.5351 9.23993 12.4823C9.19238 12.4201 9.18235 12.3766 9.16973 12.3009C9.15242 12.1996 9.12431 12.1076 9.0901 12.0104C9.00653 11.7305 9.00066 11.4509 9.00031 11.1618C9.00022 11.1435 9.00013 11.1251 9.00003 11.1062C8.99948 10.9129 9.00514 10.7345 9.063 10.5483C9.07002 10.4962 9.07586 10.444 9.07994 10.3916C9.08197 10.3669 9.08399 10.3421 9.08608 10.3166C9.08741 10.2983 9.08874 10.2799 9.0901 10.2611C9.13036 10.2482 9.13036 10.2482 9.17143 10.235C9.1744 10.2151 9.17737 10.1953 9.18043 10.1749C9.18472 10.149 9.18902 10.123 9.19345 10.0963C9.19754 10.0705 9.20163 10.0448 9.20584 10.0182C9.2272 9.94222 9.24917 9.92167 9.30696 9.86944C9.31143 9.83875 9.3159 9.80805 9.32051 9.77643C9.32499 9.74681 9.32946 9.71719 9.33407 9.68668C9.37432 9.66083 9.37432 9.66083 9.41539 9.63446C9.4221 9.59569 9.4221 9.59569 9.42894 9.55613C9.43565 9.51736 9.43565 9.51736 9.44249 9.4778C9.48275 9.45196 9.48275 9.45196 9.52381 9.42559C9.5427 9.38239 9.56071 9.33884 9.57803 9.29504C9.592 9.27727 9.60598 9.2595 9.62038 9.24119C9.66089 9.1886 9.67462 9.15 9.68645 9.08617C9.71329 9.08617 9.74013 9.08617 9.76778 9.08617C9.77057 9.0657 9.77337 9.04524 9.77625 9.02416C9.79488 8.95562 9.79488 8.95562 9.8762 8.9034C9.90374 8.86014 9.93081 8.81659 9.95752 8.77285C10.0307 8.69004 10.1104 8.61359 10.1896 8.53624C10.2103 8.51529 10.2309 8.49434 10.2522 8.47275C10.3793 8.3486 10.4864 8.27337 10.6609 8.22329C10.7314 8.1918 10.7405 8.16115 10.7707 8.09401C10.8504 8.03891 10.8885 8.01569 10.9876 8.01569C10.9876 7.99846 10.9876 7.98122 10.9876 7.96347C11.0214 7.9502 11.0553 7.93719 11.0892 7.9243C11.1081 7.91704 11.127 7.90977 11.1464 7.90228C11.2044 7.88514 11.2044 7.88514 11.3129 7.88514C11.3218 7.85929 11.3308 7.83344 11.34 7.80681C11.3625 7.80365 11.385 7.80049 11.4083 7.79723C11.4377 7.79285 11.4672 7.78848 11.4975 7.78397C11.5268 7.77973 11.556 7.77549 11.5862 7.77112C11.6699 7.75848 11.6699 7.75848 11.7466 7.70238C11.8257 7.69157 11.8257 7.69157 11.9143 7.68606C11.9438 7.68411 11.9732 7.68215 12.0036 7.68014C12.0261 7.67886 12.0486 7.67758 12.0719 7.67627C12.0719 7.65904 12.0719 7.6418 12.0719 7.62405C12.1498 7.60261 12.2187 7.59475 12.2996 7.59498Z" fill="#FAF8F4"/>
<path d="M20.6881 8.291C20.7576 8.28666 20.826 8.2867 20.8956 8.288C20.9221 8.28798 20.9485 8.28796 20.9758 8.28794C21.0634 8.28803 21.1509 8.28905 21.2385 8.29007C21.2991 8.29032 21.3598 8.2905 21.4205 8.29063C21.5802 8.29113 21.74 8.29241 21.8997 8.29386C22.0627 8.29519 22.2257 8.29579 22.3887 8.29645C22.7085 8.29785 23.0284 8.30008 23.3483 8.30282C23.3528 8.37713 23.3528 8.37713 23.3483 8.45948C23.2749 8.52373 23.2749 8.52373 23.2298 8.55563C23.1561 8.61301 23.1096 8.68697 23.0586 8.763C22.998 8.85155 22.9386 8.93284 22.8603 9.00777C22.8383 9.04414 22.8175 9.0812 22.7977 9.11874C22.7413 9.22013 22.6765 9.30021 22.5966 9.38503C22.5576 9.42666 22.5576 9.42666 22.5351 9.49242C22.5005 9.57345 22.4479 9.61506 22.3826 9.67447C22.3334 9.72495 22.3171 9.77908 22.2911 9.84327C22.2517 9.89087 22.2103 9.93574 22.1674 9.98044C22.1268 10.0279 22.1006 10.0746 22.0742 10.1305C22.0563 10.1305 22.0385 10.1305 22.02 10.1305C22.02 10.1649 22.02 10.1994 22.02 10.2349C21.9599 10.2992 21.896 10.3557 21.8286 10.4128C21.7659 10.481 21.7328 10.551 21.6955 10.6342C21.6676 10.6788 21.6676 10.6788 21.5863 10.7049C21.5673 10.748 21.5494 10.7916 21.5321 10.8354C21.4978 10.8836 21.4621 10.9309 21.4254 10.9774C21.3655 11.0532 21.3151 11.1229 21.2711 11.2084C21.2339 11.2793 21.2339 11.2793 21.1797 11.3054C21.1516 11.3483 21.1247 11.3919 21.0984 11.4359C21.0679 11.482 21.0368 11.5277 21.0052 11.573C20.9896 11.5958 20.974 11.6185 20.9579 11.6419C20.9033 11.703 20.8793 11.7084 20.8002 11.7231C20.7808 11.7661 20.7627 11.8097 20.746 11.8537C20.7058 11.8795 20.7058 11.8795 20.6647 11.9059C20.6371 11.9627 20.6371 11.9627 20.6156 12.0283C20.5711 12.1426 20.5189 12.2182 20.4328 12.3065C20.3926 12.3508 20.3649 12.3943 20.336 12.446C20.2892 12.5258 20.243 12.5731 20.1768 12.637C20.1695 12.6563 20.1623 12.6756 20.1548 12.6955C20.1146 12.7852 20.055 12.8516 19.9887 12.9242C19.906 13.0156 19.8339 13.1064 19.7702 13.2114C19.6519 13.3336 19.6519 13.3336 19.5804 13.368C19.5497 13.4207 19.5497 13.4207 19.5262 13.4724C19.5083 13.4724 19.4904 13.4724 19.472 13.4724C19.4692 13.4908 19.4664 13.5091 19.4635 13.5279C19.4275 13.6731 19.3461 13.7891 19.2551 13.9081C19.2367 13.9325 19.2182 13.9568 19.1992 13.9819C19.157 14.0342 19.1142 14.0789 19.0654 14.1252C19.0335 14.18 19.0335 14.18 19.0112 14.2296C18.9933 14.2296 18.9754 14.2296 18.957 14.2296C18.9561 14.2571 18.9561 14.2571 18.9553 14.2851C18.9272 14.3681 18.909 14.3818 18.8401 14.4336C18.7454 14.5055 18.706 14.5731 18.658 14.6781C18.6196 14.7474 18.5612 14.7844 18.4961 14.8301C18.4872 14.856 18.4783 14.8818 18.469 14.9085C18.4511 14.9171 18.4333 14.9257 18.4148 14.9346C18.3953 14.9775 18.377 15.021 18.3606 15.0651C18.3338 15.0651 18.3069 15.0651 18.2793 15.0651C18.2759 15.0947 18.2726 15.1243 18.2691 15.1549C18.2607 15.2009 18.2607 15.2009 18.2522 15.2479C18.2343 15.2565 18.2164 15.2651 18.198 15.274C18.1901 15.2932 18.1823 15.3124 18.1742 15.3322C18.1393 15.4152 18.0936 15.4736 18.0353 15.5432C18.0163 15.5663 17.9973 15.5893 17.9777 15.6131C17.961 15.6304 17.9442 15.6478 17.9269 15.6656C17.909 15.6656 17.8911 15.6656 17.8727 15.6656C17.8727 15.7001 17.8727 15.7346 17.8727 15.7701C17.8458 15.7701 17.819 15.7701 17.7914 15.7701C17.7824 15.8045 17.7735 15.839 17.7643 15.8745C17.7464 15.8745 17.7285 15.8745 17.71 15.8745C17.6991 15.8971 17.6991 15.8971 17.688 15.9202C17.655 15.9804 17.6205 16.0317 17.5745 16.0834C17.5566 16.0834 17.5387 16.0834 17.5203 16.0834C17.5175 16.1033 17.5147 16.1232 17.5118 16.1437C17.4932 16.2139 17.4932 16.2139 17.4531 16.252C17.4035 16.2941 17.4035 16.2941 17.3848 16.3804C17.3365 16.5164 17.2392 16.6134 17.1414 16.719C17.0671 16.7993 17.0073 16.8775 16.9511 16.9711C16.911 17.0183 16.869 17.0631 16.8264 17.1083C16.7868 17.1558 16.7605 17.2029 16.7342 17.2583C16.7163 17.2583 16.6984 17.2583 16.68 17.2583C16.6789 17.2761 16.6777 17.2938 16.6766 17.3121C16.6476 17.4059 16.5998 17.4525 16.5323 17.5238C16.4916 17.57 16.4624 17.6146 16.4326 17.6679C16.3859 17.7475 16.3407 17.7961 16.2734 17.8588C16.2549 17.8934 16.2367 17.9282 16.2192 17.9632C16.2013 17.9719 16.1834 17.9805 16.165 17.9893C16.1577 18.0082 16.1504 18.027 16.1429 18.0465C16.1027 18.1382 16.0412 18.2003 15.9752 18.2765C15.9663 18.2986 15.9573 18.3207 15.9481 18.3435C15.9118 18.4287 15.8538 18.4733 15.7855 18.5376C15.6945 18.6457 15.6153 18.7575 15.5415 18.8771C15.5147 18.9086 15.5147 18.9086 15.4873 18.9407C15.4303 19.0059 15.4303 19.0059 15.3958 19.0843C15.3401 19.1854 15.2776 19.2447 15.1891 19.3209C15.1712 19.3209 15.1533 19.3209 15.1349 19.3209C15.126 19.3468 15.117 19.3726 15.1078 19.3992C15.0899 19.4079 15.072 19.4165 15.0536 19.4254C15.0347 19.4685 15.0167 19.5121 14.9994 19.5559C14.9815 19.5817 14.9636 19.6076 14.9451 19.6342C14.9273 19.6342 14.9094 19.6342 14.8909 19.6342C14.8526 19.7031 14.8266 19.7666 14.8096 19.8431C14.7738 19.8431 14.7381 19.8431 14.7012 19.8431C14.697 19.873 14.697 19.873 14.6927 19.9035C14.6741 19.9736 14.6741 19.9736 14.6353 20.0094C14.5831 20.0616 14.5678 20.1076 14.5436 20.176C14.4995 20.2884 14.4479 20.3663 14.3614 20.4523C14.3186 20.4965 14.3186 20.4965 14.2836 20.5575C14.2355 20.6341 14.1802 20.6986 14.1201 20.7667C14.0505 20.8473 13.9855 20.9241 13.9337 21.0164C13.8896 21.0935 13.8434 21.1393 13.7796 21.2008C13.7724 21.22 13.7652 21.2393 13.7578 21.2591C13.7168 21.3502 13.6555 21.4176 13.5881 21.4912C13.4903 21.5964 13.4903 21.5964 13.4272 21.723C13.3824 21.7316 13.3377 21.7402 13.2916 21.7491C13.2888 21.7647 13.286 21.7803 13.2832 21.7964C13.2618 21.8619 13.2328 21.8841 13.1832 21.9318C13.1638 21.9868 13.1638 21.9868 13.1561 22.0363C13.1293 22.0363 13.1024 22.0363 13.0748 22.0363C13.0737 22.054 13.0725 22.0718 13.0714 22.0901C13.0421 22.185 12.9919 22.2331 12.9236 22.3051C12.8767 22.3592 12.8555 22.4143 12.8308 22.4801C12.7888 22.5305 12.7649 22.5554 12.6984 22.5685C12.6791 22.5686 12.6598 22.5687 12.6399 22.5689C12.6177 22.5692 12.5954 22.5695 12.5725 22.5699C12.5482 22.5698 12.5239 22.5698 12.4989 22.5697C12.4732 22.57 12.4476 22.5703 12.4211 22.5706C12.3362 22.5713 12.2513 22.5716 12.1664 22.5718C12.1075 22.5723 12.0487 22.5727 11.9899 22.5732C11.8349 22.5745 11.68 22.5753 11.525 22.5759C11.367 22.5767 11.2089 22.5779 11.0508 22.5791C10.7406 22.5814 10.4304 22.5831 10.1201 22.5846C10.1144 22.4103 10.1144 22.4103 10.1657 22.3335C10.1853 22.314 10.2049 22.2946 10.2252 22.2745C10.2447 22.2547 10.2642 22.2348 10.2843 22.2143C10.337 22.1668 10.337 22.1668 10.3912 22.1407C10.4146 22.1034 10.4364 22.0652 10.4573 22.0265C10.5003 21.9466 10.5423 21.8905 10.6081 21.8274C10.617 21.8016 10.6259 21.7757 10.6352 21.7491C10.6911 21.7311 10.6911 21.7311 10.7436 21.723C10.7525 21.6799 10.7615 21.6368 10.7707 21.5924C10.7886 21.5924 10.8065 21.5924 10.8249 21.5924C10.8277 21.572 10.8305 21.5515 10.8334 21.5304C10.852 21.4619 10.852 21.4619 10.9333 21.4097C10.9431 21.375 10.9522 21.3402 10.9604 21.3052C10.9783 21.2966 10.9962 21.288 11.0147 21.2791C11.0429 21.2363 11.0697 21.1926 11.096 21.1486C11.1566 21.0515 11.2165 20.9575 11.2908 20.8695C11.3427 20.812 11.3427 20.812 11.3654 20.7439C11.4033 20.6579 11.4596 20.6124 11.5297 20.548C11.5589 20.5174 11.5877 20.4864 11.6161 20.455C11.636 20.4332 11.636 20.4332 11.6562 20.4109C11.694 20.3631 11.7205 20.3153 11.7465 20.2608C11.7734 20.2608 11.8002 20.2608 11.8279 20.2608C11.829 20.2425 11.8301 20.2242 11.8313 20.2054C11.8607 20.1122 11.908 20.0771 11.9808 20.0125C12.0303 19.9603 12.0365 19.9121 12.0447 19.8431C12.0626 19.8345 12.0805 19.8259 12.0989 19.817C12.1165 19.7887 12.1165 19.7887 12.1345 19.7599C12.1881 19.6739 12.2458 19.6041 12.3158 19.5298C12.3337 19.5298 12.3516 19.5298 12.37 19.5298C12.3711 19.5072 12.3722 19.4846 12.3734 19.4613C12.3998 19.363 12.4395 19.3278 12.516 19.2609C12.566 19.2101 12.5957 19.1593 12.6292 19.0974C12.6832 18.9976 12.7429 18.9265 12.8308 18.8509C12.8883 18.8033 12.8883 18.8033 12.9054 18.7416C12.9449 18.6559 12.9973 18.5994 13.0629 18.531C13.1035 18.4835 13.1297 18.4368 13.1561 18.381C13.174 18.381 13.1919 18.381 13.2103 18.381C13.2134 18.366 13.2165 18.3511 13.2197 18.3357C13.2391 18.2709 13.2665 18.2227 13.3035 18.1656C13.3211 18.1379 13.3211 18.1379 13.339 18.1097C13.3502 18.0958 13.3614 18.082 13.373 18.0677C13.3908 18.0677 13.4087 18.0677 13.4272 18.0677C13.4289 18.0538 13.4306 18.0399 13.4324 18.0257C13.464 17.9356 13.525 17.8713 13.5881 17.8001C13.6005 17.7856 13.6128 17.7711 13.6255 17.7562C13.6575 17.7196 13.6913 17.6846 13.7253 17.6499C13.7432 17.6499 13.7611 17.6499 13.7796 17.6499C13.7885 17.6068 13.7974 17.5638 13.8067 17.5194C13.8246 17.5194 13.8424 17.5194 13.8609 17.5194C13.8651 17.4887 13.8651 17.4887 13.8693 17.4574C13.888 17.3888 13.888 17.3888 13.9693 17.3366C14.0054 17.2815 14.0054 17.2815 14.0371 17.2191C14.0823 17.1332 14.1003 17.1046 14.1862 17.0494C14.196 17.0148 14.2051 16.98 14.2133 16.945C14.2312 16.9364 14.249 16.9277 14.2675 16.9189C14.2935 16.8739 14.3195 16.8288 14.3452 16.7836C14.3759 16.7361 14.3759 16.7361 14.442 16.6741C14.5047 16.6122 14.5364 16.5664 14.5775 16.4913C14.6397 16.3782 14.7108 16.2746 14.8096 16.1878C14.8275 16.1878 14.8454 16.1878 14.8638 16.1878C14.8728 16.1447 14.8817 16.1016 14.8909 16.0573C14.9088 16.0573 14.9267 16.0573 14.9451 16.0573C14.9523 16.0432 14.9594 16.0291 14.9667 16.0145C15.0653 15.828 15.1702 15.6493 15.3173 15.4945C15.3643 15.443 15.397 15.3851 15.4331 15.3262C15.456 15.3004 15.4789 15.2745 15.5025 15.2479C15.5619 15.1775 15.5942 15.1243 15.6228 15.039C15.6497 15.039 15.6765 15.039 15.7041 15.039C15.7091 15.016 15.7091 15.016 15.7141 14.9925C15.7315 14.9336 15.7534 14.8941 15.7884 14.8433C15.8 14.8265 15.8115 14.8098 15.8234 14.7925C15.8415 14.7667 15.8415 14.7667 15.86 14.7404C15.8775 14.7147 15.8775 14.7147 15.8954 14.6885C15.9675 14.5849 16.0455 14.5004 16.1378 14.4124C16.1756 14.3559 16.1756 14.3559 16.2039 14.2982C16.2581 14.199 16.32 14.1214 16.3979 14.0387C16.4363 13.9944 16.4637 13.9508 16.4919 13.9C16.5451 13.8107 16.6039 13.7526 16.68 13.6813C16.7151 13.6248 16.7151 13.6248 16.7342 13.5769C16.7521 13.5769 16.77 13.5769 16.7884 13.5769C16.7902 13.5631 16.7919 13.5494 16.7937 13.5352C16.8252 13.4445 16.8861 13.3778 16.9477 13.3044C17.0455 13.1866 17.0455 13.1866 17.1308 13.0603C17.1679 13.0025 17.1679 13.0025 17.2492 12.9503C17.2815 12.8967 17.2815 12.8967 17.3034 12.8458C17.3213 12.8458 17.3392 12.8458 17.3577 12.8458C17.3577 12.8114 17.3577 12.7769 17.3577 12.7414C17.3979 12.7155 17.3979 12.7155 17.439 12.6892C17.4576 12.6459 17.4757 12.6024 17.4932 12.5586C17.5111 12.55 17.529 12.5414 17.5474 12.5325C17.5689 12.4962 17.5891 12.459 17.6084 12.4216C17.6724 12.3068 17.7344 12.2407 17.8456 12.167C17.8635 12.167 17.8814 12.167 17.8998 12.167C17.8979 12.1482 17.8961 12.1294 17.8942 12.1101C17.9012 12.0175 17.9327 11.9768 17.9896 11.9026C18.0146 11.8694 18.0146 11.8694 18.0401 11.8355C18.0815 11.7851 18.1203 11.7388 18.1709 11.697C18.1887 11.697 18.2066 11.697 18.2251 11.697C18.234 11.6539 18.243 11.6109 18.2522 11.5665C18.2701 11.5665 18.288 11.5665 18.3064 11.5665C18.3142 11.5412 18.322 11.5159 18.3301 11.4898C18.3606 11.4098 18.3606 11.4098 18.4148 11.3837C18.4377 11.3481 18.459 11.3115 18.4792 11.2744C18.6332 11.0017 18.6332 11.0017 18.7198 10.9692C18.7354 10.9681 18.7511 10.9671 18.7672 10.966C18.7678 10.9444 18.7683 10.9229 18.7689 10.9007C18.8002 10.7883 18.8545 10.7368 18.9359 10.6535C18.9814 10.6033 19.0129 10.5564 19.0451 10.4976C19.0925 10.4177 19.0925 10.4177 19.1738 10.3916C19.2157 10.3337 19.2487 10.2744 19.2796 10.2105C19.3382 10.0905 19.4009 10.0162 19.4991 9.92159C19.5221 9.88409 19.5441 9.84594 19.5652 9.80737C19.6199 9.70728 19.6826 9.62789 19.7611 9.54423C19.8011 9.50187 19.8011 9.50187 19.8379 9.43857C19.8857 9.36182 19.9435 9.29963 20.0059 9.23357C20.0471 9.18842 20.0471 9.18842 20.0683 9.11221C20.0862 9.10359 20.1041 9.09498 20.1226 9.0861C20.1326 9.05702 20.1326 9.05702 20.1429 9.02735C20.1897 8.92811 20.2482 8.88908 20.3394 8.82501C20.3573 8.82501 20.3752 8.82501 20.3936 8.82501C20.394 8.80767 20.3944 8.79034 20.3948 8.77248C20.4055 8.58127 20.4055 8.58127 20.4851 8.49048C20.5086 8.47163 20.5321 8.45279 20.5563 8.43337C20.5658 8.41096 20.5754 8.38854 20.5852 8.36545C20.6376 8.30282 20.6376 8.30282 20.6881 8.291Z" fill="#FBF8F5"/>
<path d="M25.2568 3.00009C25.2829 3.00013 25.3091 3.00016 25.3361 3.0002C25.4189 3.00035 25.5017 3.00067 25.5846 3.00101C25.6411 3.00114 25.6975 3.00126 25.754 3.00136C25.8918 3.00165 26.0296 3.0021 26.1674 3.00264C26.1674 3.02849 26.1674 3.05434 26.1674 3.08097C26.1965 3.08258 26.2255 3.0842 26.2555 3.08586C26.4549 3.10919 26.6408 3.20248 26.8179 3.28984C26.8179 3.30707 26.8179 3.32431 26.8179 3.34206C26.8336 3.34368 26.8493 3.34529 26.8654 3.34696C26.9514 3.37689 26.9841 3.42716 27.0348 3.49871C27.0348 3.51595 27.0348 3.53318 27.0348 3.55093C27.0706 3.55093 27.1064 3.55093 27.1432 3.55093C27.1865 3.58908 27.1865 3.58908 27.2262 3.63905C27.2791 3.70468 27.3134 3.73856 27.3872 3.78592C27.4062 3.82905 27.4243 3.87258 27.4414 3.91646C27.4593 3.93369 27.4772 3.95093 27.4956 3.96868C27.4956 4.00315 27.4956 4.03761 27.4956 4.07312C27.5129 4.0812 27.5303 4.08927 27.5481 4.0976C27.604 4.12534 27.604 4.12534 27.6311 4.15145C27.6323 4.19495 27.6323 4.23849 27.6311 4.28199C27.649 4.28199 27.6669 4.28199 27.6854 4.28199C27.6985 4.32982 27.7115 4.37769 27.7243 4.42559C27.7316 4.45225 27.7388 4.4789 27.7462 4.50637C27.7943 4.71569 27.7972 4.91696 27.7955 5.13054C27.7954 5.15949 27.7952 5.18843 27.7951 5.21825C27.7948 5.2891 27.7944 5.35995 27.7938 5.4308C27.7759 5.4308 27.758 5.4308 27.7396 5.4308C27.7376 5.48078 27.7376 5.48078 27.7356 5.53177C27.7335 5.57535 27.7315 5.61893 27.7294 5.66252C27.7286 5.68449 27.7277 5.70647 27.7269 5.72912C27.7253 5.76067 27.7253 5.76067 27.7237 5.79286C27.7228 5.81227 27.722 5.83169 27.7211 5.85169C27.7125 5.90076 27.7125 5.90076 27.6583 5.95298C27.6418 6.00672 27.6308 6.06056 27.6193 6.11545C27.6143 6.13076 27.6092 6.14608 27.604 6.16186C27.5772 6.17478 27.5772 6.17478 27.5498 6.18796C27.5409 6.21381 27.5319 6.23966 27.5227 6.26629C27.5048 6.26629 27.4869 6.26629 27.4685 6.26629C27.4386 6.32189 27.4129 6.37483 27.3923 6.43437C27.3509 6.5203 27.2965 6.56718 27.2245 6.63182C27.2012 6.656 27.2012 6.656 27.1773 6.68067C27.161 6.6974 27.1448 6.71413 27.128 6.73136C27.1128 6.74715 27.0977 6.76293 27.0821 6.7792C27.0348 6.81459 27.0348 6.81459 26.9264 6.81459C26.9174 6.84043 26.9085 6.86628 26.8993 6.89291C26.878 6.89507 26.8568 6.89722 26.8349 6.89944C26.7997 6.90913 26.7997 6.90913 26.7637 6.91902C26.7565 6.93572 26.7492 6.95241 26.7417 6.96961C26.7095 7.02346 26.7095 7.02346 26.6582 7.04192C26.6034 7.05477 26.548 7.06536 26.4927 7.07568C26.4927 7.09291 26.4927 7.11014 26.4927 7.1279C26.4695 7.13136 26.4463 7.13483 26.4225 7.1384C26.3925 7.14301 26.3626 7.14762 26.3317 7.15237C26.3018 7.15692 26.272 7.16146 26.2412 7.16614C26.17 7.17276 26.17 7.17276 26.1403 7.20622C25.9986 7.23131 25.8619 7.23583 25.7185 7.23488C25.6971 7.23485 25.6757 7.23481 25.6537 7.23477C25.5861 7.23463 25.5184 7.2343 25.4507 7.23397C25.4046 7.23383 25.3584 7.23372 25.3123 7.23361C25.1998 7.23332 25.0872 7.23287 24.9747 7.23233C24.9747 7.2151 24.9747 7.19787 24.9747 7.18012C24.9459 7.17567 24.9171 7.17123 24.8874 7.16665C24.6819 7.13332 24.5056 7.10092 24.3241 6.99735C24.2962 6.98497 24.2682 6.97258 24.2394 6.95982C24.1456 6.91072 24.0762 6.85948 23.9988 6.78848C23.9988 6.76263 23.9988 6.73678 23.9988 6.71015C23.9782 6.70746 23.9575 6.70476 23.9362 6.70199C23.8568 6.68244 23.8277 6.67054 23.782 6.60571C23.7769 6.53554 23.7769 6.53554 23.782 6.47517C23.7652 6.47301 23.7484 6.47086 23.7312 6.46864C23.6554 6.44289 23.6541 6.41162 23.6193 6.34462C23.5942 6.33977 23.5942 6.33977 23.5685 6.33483C23.5109 6.31851 23.5109 6.31851 23.4516 6.25324C23.3995 6.1563 23.3869 6.08753 23.3801 5.98042C23.3771 5.92166 23.3771 5.92166 23.3483 5.84855C23.3304 5.84855 23.3125 5.84855 23.2941 5.84855C23.2493 5.57569 23.2346 5.30729 23.2348 5.031C23.2347 5.00003 23.2347 4.96905 23.2347 4.93714C23.2363 4.69443 23.2363 4.69443 23.267 4.5953C23.2848 4.5953 23.3027 4.5953 23.3212 4.5953C23.3212 4.50053 23.3212 4.40575 23.3212 4.3081C23.3614 4.29518 23.3614 4.29518 23.4025 4.28199C23.4058 4.26496 23.4091 4.24793 23.4124 4.23039C23.483 3.87574 23.483 3.87574 23.6464 3.7337C23.6615 3.71808 23.6766 3.70246 23.6922 3.68638C23.7278 3.65537 23.7278 3.65537 23.782 3.65537C23.7881 3.64083 23.7943 3.62629 23.8006 3.61131C23.8463 3.53374 23.9048 3.48187 23.9717 3.42039C23.9941 3.39723 24.0165 3.37408 24.0395 3.35022C24.1074 3.28968 24.1564 3.26608 24.2428 3.23762C24.2696 3.22039 24.2965 3.20316 24.3241 3.1854C24.3599 3.1854 24.3957 3.1854 24.4325 3.1854C24.4325 3.16817 24.4325 3.15094 24.4325 3.13319C24.5424 3.10753 24.645 3.10495 24.7578 3.10708C24.7578 3.08123 24.7578 3.05538 24.7578 3.02875C24.9253 3.00496 25.0876 2.99918 25.2568 3.00009Z" fill="#FBF9F6"/>
<path d="M20.8934 17.9584C20.9232 17.9579 20.9232 17.9579 20.9535 17.9573C21.0915 17.9571 21.2103 17.976 21.3424 18.0155C21.3692 18.0413 21.3692 18.0413 21.3966 18.0677C21.424 18.0763 21.4514 18.0849 21.4796 18.0938C21.5592 18.1199 21.5592 18.1199 21.5863 18.1721C21.6105 18.1789 21.6348 18.1857 21.6597 18.1926C21.766 18.2304 21.8277 18.2883 21.9031 18.3663C21.9223 18.3855 21.9223 18.3855 21.9419 18.4051C21.9772 18.4404 22.0122 18.476 22.0471 18.5115C22.0717 18.5322 22.0717 18.5322 22.0968 18.5533C22.1285 18.5899 22.1285 18.5899 22.1285 18.6943C22.1821 18.7072 22.1821 18.7072 22.2369 18.7204C22.2436 18.7457 22.2503 18.771 22.2572 18.7971C22.287 18.899 22.3309 18.9925 22.3777 19.0881C22.3995 19.1382 22.3995 19.1382 22.3995 19.1904C22.4174 19.1904 22.4353 19.1904 22.4537 19.1904C22.4553 19.2796 22.4563 19.3688 22.4571 19.458C22.4576 19.4833 22.458 19.5086 22.4585 19.5346C22.4587 19.559 22.4589 19.5834 22.459 19.6085C22.4593 19.631 22.4596 19.6534 22.4599 19.6765C22.4533 19.7434 22.4345 19.7855 22.3995 19.8431C22.3816 19.8431 22.3637 19.8431 22.3453 19.8431C22.3467 19.87 22.3467 19.87 22.3482 19.8975C22.3489 19.921 22.3496 19.9445 22.3504 19.9688C22.3518 20.0038 22.3518 20.0038 22.3533 20.0394C22.3438 20.1168 22.323 20.1324 22.264 20.1825C22.2562 20.2084 22.2483 20.2342 22.2403 20.2609C22.2018 20.3597 22.1668 20.364 22.0742 20.4175C22.0444 20.4532 22.0157 20.4897 21.9878 20.5269C21.8817 20.6639 21.7556 20.7606 21.6134 20.8614C21.5866 20.8818 21.5598 20.9023 21.5321 20.9234C21.4195 20.9822 21.3055 20.9998 21.1797 21.018C21.1797 21.0353 21.1797 21.0525 21.1797 21.0703C21.0555 21.0725 20.9313 21.0739 20.807 21.0751C20.7717 21.0758 20.7364 21.0765 20.7001 21.0771C20.6662 21.0774 20.6323 21.0776 20.5973 21.0779C20.5661 21.0783 20.5349 21.0787 20.5027 21.0791C20.4115 21.0692 20.3808 21.048 20.3123 20.9919C20.2492 20.9741 20.1859 20.9567 20.1226 20.9397C20.0957 20.9139 20.0957 20.9139 20.0683 20.8875C20.0398 20.8821 20.0113 20.8767 19.9819 20.8712C19.8623 20.8419 19.8074 20.7668 19.7343 20.6753C19.6918 20.6235 19.6918 20.6235 19.6307 20.5987C19.5804 20.5742 19.5804 20.5742 19.5533 20.4958C19.5265 20.4872 19.4996 20.4786 19.472 20.4697C19.4586 20.4051 19.4586 20.4051 19.4449 20.3392C19.4181 20.3306 19.3912 20.322 19.3636 20.3131C19.3602 20.2845 19.3569 20.256 19.3534 20.2266C19.3431 20.1284 19.3431 20.1284 19.2822 20.052C19.2702 19.9985 19.2602 19.9446 19.2518 19.8904C19.2472 19.8621 19.2427 19.8337 19.238 19.8045C19.2347 19.7828 19.2314 19.761 19.228 19.7387C19.2101 19.7387 19.1923 19.7387 19.1738 19.7387C19.1724 19.6625 19.1713 19.5864 19.1704 19.5102C19.17 19.4887 19.1695 19.4671 19.1691 19.445C19.1689 19.4241 19.1687 19.4032 19.1685 19.3817C19.1682 19.3626 19.168 19.3434 19.1677 19.3237C19.1747 19.2606 19.1972 19.2199 19.228 19.1643C19.2376 19.0958 19.2416 19.0281 19.2458 18.9592C19.2489 18.9407 19.252 18.9222 19.2551 18.9032C19.282 18.8903 19.282 18.8903 19.3094 18.8771C19.3183 18.8512 19.3272 18.8254 19.3365 18.7987C19.3816 18.7552 19.4268 18.7117 19.472 18.6682C19.4844 18.6478 19.4967 18.6273 19.5095 18.6063C19.5572 18.5316 19.6104 18.4767 19.6753 18.4153C19.6963 18.3952 19.7172 18.3752 19.7388 18.3546C19.8284 18.275 19.862 18.2505 19.987 18.2505C19.996 18.2246 20.0049 18.1988 20.0141 18.1721C20.0497 18.1281 20.0497 18.1281 20.0954 18.0938C20.1312 18.0938 20.167 18.0938 20.2039 18.0938C20.2128 18.0593 20.2218 18.0249 20.231 17.9894C20.4518 17.9718 20.6719 17.9601 20.8934 17.9584Z" fill="#F78418"/>
<path d="M13.1561 9.7127C13.2463 9.72415 13.3365 9.73201 13.4272 9.73881C13.4272 9.75604 13.4272 9.77327 13.4272 9.79103C13.4502 9.79532 13.4502 9.79532 13.4737 9.7997C13.4936 9.80384 13.5134 9.80798 13.5339 9.81224C13.5537 9.81618 13.5735 9.82012 13.594 9.82417C13.6105 9.83047 13.627 9.83676 13.644 9.84325C13.6575 9.88202 13.6575 9.88202 13.6711 9.92157C13.7005 9.93854 13.7005 9.93854 13.7304 9.95584C13.8638 10.0329 13.9561 10.1265 14.0235 10.261C14.0493 10.2778 14.0493 10.2778 14.0756 10.2949C14.144 10.3488 14.1606 10.3918 14.1896 10.4715C14.2258 10.5716 14.2258 10.5716 14.2946 10.6526C14.3122 10.7156 14.3265 10.7764 14.3387 10.8403C14.3422 10.8587 14.3458 10.877 14.3495 10.896C14.3834 11.0854 14.3836 11.2702 14.3759 11.462C14.3357 11.4749 14.3357 11.4749 14.2946 11.4881C14.2907 11.5204 14.2868 11.5527 14.2827 11.586C14.2733 11.6595 14.262 11.7302 14.2404 11.8014C14.2225 11.8014 14.2046 11.8014 14.1862 11.8014C14.1772 11.8617 14.1683 11.9221 14.1591 11.9842C14.1188 11.9971 14.1188 11.9971 14.0777 12.0103C14.0806 12.0391 14.0806 12.0391 14.0835 12.0685C14.0763 12.1587 14.0492 12.1878 13.9863 12.2535C13.9693 12.2717 13.9523 12.2899 13.9348 12.3086C13.888 12.3497 13.888 12.3497 13.8338 12.3497C13.8204 12.3885 13.8204 12.3885 13.8067 12.4281C13.732 12.4923 13.6557 12.5247 13.5627 12.5586C13.5538 12.5672 13.5448 12.5758 13.5356 12.5847C13.4814 12.5858 13.4272 12.5858 13.373 12.5847C13.364 12.6278 13.3551 12.6709 13.3459 12.7153C12.9889 12.7594 12.5901 12.7751 12.2345 12.7153C12.2066 12.6899 12.1795 12.6638 12.1532 12.6369C12.0861 12.6089 12.0861 12.6089 12.0179 12.5832C11.8588 12.5114 11.7406 12.4037 11.6195 12.2845C11.6041 12.2696 11.5887 12.2548 11.5729 12.2395C11.4655 12.135 11.3731 12.0424 11.323 11.901C11.3011 11.832 11.3011 11.832 11.2586 11.7753C11.2441 11.7116 11.2325 11.6475 11.2206 11.5832C11.207 11.5142 11.207 11.5142 11.1757 11.454C11.141 11.3582 11.1444 11.2666 11.1468 11.1667C11.1471 11.1473 11.1473 11.128 11.1476 11.1081C11.1482 11.0607 11.1492 11.0133 11.1502 10.9659C11.1681 10.9659 11.186 10.9659 11.2044 10.9659C11.2054 10.9423 11.2065 10.9188 11.2075 10.8944C11.2093 10.8637 11.2111 10.8329 11.2129 10.8011C11.2145 10.7705 11.216 10.7399 11.2177 10.7084C11.2315 10.6265 11.2315 10.6265 11.27 10.5764C11.3129 10.5482 11.3129 10.5482 11.3671 10.5482C11.3693 10.5304 11.3715 10.5127 11.3738 10.4943C11.4178 10.3286 11.4969 10.2291 11.6381 10.1304C11.6543 10.1143 11.6706 10.0981 11.6873 10.0815C11.7412 10.031 11.7959 9.98596 11.855 9.94116C11.8729 9.92756 11.8908 9.91396 11.9092 9.89995C11.9634 9.86935 11.9634 9.86935 12.0718 9.86935C12.0718 9.85212 12.0718 9.83489 12.0718 9.81714C12.1237 9.7984 12.1756 9.77973 12.2277 9.76145C12.2808 9.74176 12.3324 9.71853 12.3836 9.69475C12.6203 9.60877 12.9197 9.64596 13.1561 9.7127Z" fill="#F78418"/>
</svg>
