<svg width="20" height="20" viewBox="0 0 20 20" fill="none" xmlns="http://www.w3.org/2000/svg">
<g clip-path="url(#clip0_154_40310)">
<path d="M8.33329 5C8.333 6.16672 8.6389 7.31309 9.22044 8.32456C9.80197 9.33602 10.6388 10.1772 11.6472 10.7639C12.6556 11.3507 13.8004 11.6625 14.9671 11.6683C16.1338 11.674 17.2816 11.3735 18.2958 10.7967C17.895 15.025 14.3333 18.3333 9.99996 18.3333C5.39746 18.3333 1.66663 14.6025 1.66663 10C1.66663 5.66667 4.97496 2.105 9.20329 1.70417C8.63126 2.70828 8.33136 3.84438 8.33329 5ZM3.33329 10C3.33329 11.7681 4.03567 13.4638 5.28591 14.714C6.53616 15.9643 8.23185 16.6667 9.99996 16.6667C11.1779 16.6666 12.3347 16.3547 13.353 15.7626C14.3713 15.1706 15.2147 14.3195 15.7975 13.2958C15.5341 13.3208 15.2675 13.3333 15 13.3333C10.3975 13.3333 6.66663 9.6025 6.66663 5C6.66663 4.7325 6.67913 4.46667 6.70413 4.2025C5.6805 4.78527 4.8294 5.62865 4.23734 6.64694C3.64528 7.66522 3.33336 8.8221 3.33329 10ZM15.1366 1.90917L15.8333 2.08333V2.91667L15.1366 3.09083C14.8436 3.16411 14.576 3.31563 14.3625 3.52919C14.1489 3.74275 13.9974 4.01033 13.9241 4.30333L13.75 5H12.9166L12.7425 4.30333C12.6692 4.01033 12.5177 3.74275 12.3041 3.52919C12.0905 3.31563 11.823 3.16411 11.53 3.09083L10.8333 2.91667V2.08333L11.53 1.90917C11.8228 1.83576 12.0902 1.68418 12.3036 1.47063C12.517 1.25707 12.6684 0.989563 12.7416 0.696667L12.9166 0H13.75L13.9241 0.696667C13.9974 0.989666 14.1489 1.25725 14.3625 1.47081C14.576 1.68437 14.8436 1.83589 15.1366 1.90917ZM19.3033 6.07583L20 6.25V7.08333L19.3033 7.2575C19.0103 7.33078 18.7427 7.48229 18.5292 7.69586C18.3156 7.90942 18.1641 8.177 18.0908 8.47L17.9166 9.16667H17.0833L16.9091 8.47C16.8358 8.177 16.6843 7.90942 16.4708 7.69586C16.2572 7.48229 15.9896 7.33078 15.6966 7.2575L15 7.08333V6.25L15.6966 6.07583C15.9896 6.00256 16.2572 5.85104 16.4708 5.63748C16.6843 5.42391 16.8358 5.15633 16.9091 4.86333L17.0833 4.16667H17.9166L18.0908 4.86333C18.1641 5.15633 18.3156 5.42391 18.5292 5.63748C18.7427 5.85104 19.0103 6.00256 19.3033 6.07583Z" fill="#F4F4F4"/>
</g>
<defs>
<clipPath id="clip0_154_40310">
<rect width="20" height="20" fill="white"/>
</clipPath>
</defs>
</svg>
