<svg width="21" height="20" viewBox="0 0 21 20" fill="none" xmlns="http://www.w3.org/2000/svg">
<path d="M9.66663 1.66669C13.8066 1.66669 17.1666 5.02669 17.1666 9.16669C17.1666 13.3067 13.8066 16.6667 9.66663 16.6667C5.52663 16.6667 2.16663 13.3067 2.16663 9.16669C2.16663 5.02669 5.52663 1.66669 9.66663 1.66669ZM9.66663 15C12.8891 15 15.5 12.3892 15.5 9.16669C15.5 5.94335 12.8891 3.33335 9.66663 3.33335C6.44329 3.33335 3.83329 5.94335 3.83329 9.16669C3.83329 12.3892 6.44329 15 9.66663 15ZM16.7375 15.0592L19.095 17.4159L17.9158 18.595L15.5591 16.2375L16.7375 15.0592Z" fill="#CFCFCF"/>
</svg>
